<svg xmlns="http://www.w3.org/2000/svg" viewBox="0 0 900 240" width="900" height="240">
  <defs>
    <!-- Background -->
    <linearGradient id="bgGrad" x1="0" y1="0" x2="1" y2="1">
      <stop offset="0%" stop-color="#07071f"/>
      <stop offset="100%" stop-color="#160830"/>
    </linearGradient>

    <!-- Bar gradient -->
    <linearGradient id="barGrad" x1="0" y1="1" x2="0" y2="0">
      <stop offset="0%"   stop-color="#00d4ff"/>
      <stop offset="60%"  stop-color="#00ffa3"/>
      <stop offset="100%" stop-color="#8b5cf6"/>
    </linearGradient>

    <!-- Line gradient -->
    <linearGradient id="lineGrad" x1="0" y1="0" x2="1" y2="0">
      <stop offset="0%"   stop-color="#00d4ff" stop-opacity="0.7"/>
      <stop offset="50%"  stop-color="#00ffa3" stop-opacity="0.5"/>
      <stop offset="100%" stop-color="#8b5cf6" stop-opacity="0.7"/>
    </linearGradient>

    <!-- Text gradient for "Mesh" -->
    <linearGradient id="textGrad" x1="0" y1="0" x2="1" y2="0">
      <stop offset="0%"   stop-color="#00d4ff"/>
      <stop offset="50%"  stop-color="#00ffa3"/>
      <stop offset="100%" stop-color="#8b5cf6"/>
    </linearGradient>

    <!-- Node radial gradients -->
    <radialGradient id="nodeCyan" cx="50%" cy="50%" r="50%">
      <stop offset="0%" stop-color="#ffffff"/>
      <stop offset="100%" stop-color="#00d4ff"/>
    </radialGradient>
    <radialGradient id="nodePurple" cx="50%" cy="50%" r="50%">
      <stop offset="0%" stop-color="#ffffff"/>
      <stop offset="100%" stop-color="#8b5cf6"/>
    </radialGradient>
    <radialGradient id="nodeTeal" cx="50%" cy="50%" r="50%">
      <stop offset="0%" stop-color="#ffffff"/>
      <stop offset="100%" stop-color="#00ffa3"/>
    </radialGradient>

    <!-- Glow filters -->
    <filter id="barGlow" x="-80%" y="-30%" width="260%" height="160%">
      <feGaussianBlur in="SourceGraphic" stdDeviation="6" result="blur"/>
      <feMerge>
        <feMergeNode in="blur"/>
        <feMergeNode in="SourceGraphic"/>
      </feMerge>
    </filter>
    <filter id="nodeGlow" x="-150%" y="-150%" width="400%" height="400%">
      <feGaussianBlur in="SourceGraphic" stdDeviation="3" result="blur"/>
      <feMerge>
        <feMergeNode in="blur"/>
        <feMergeNode in="SourceGraphic"/>
      </feMerge>
    </filter>
    <filter id="textGlow" x="-10%" y="-30%" width="120%" height="160%">
      <feGaussianBlur in="SourceGraphic" stdDeviation="6" result="blur"/>
      <feMerge>
        <feMergeNode in="blur"/>
        <feMergeNode in="SourceGraphic"/>
      </feMerge>
    </filter>
    <filter id="ambientGlow" x="-100%" y="-50%" width="300%" height="200%">
      <feGaussianBlur in="SourceGraphic" stdDeviation="12" result="blur"/>
      <feMerge>
        <feMergeNode in="blur"/>
        <feMergeNode in="SourceGraphic"/>
      </feMerge>
    </filter>

    <!-- Clip to icon square -->
    <clipPath id="iconClip">
      <rect x="0" y="0" width="240" height="240" rx="36"/>
    </clipPath>
  </defs>

  <!-- ── Full background ───────────────────────── -->
  <rect width="900" height="240" rx="20" fill="url(#bgGrad)"/>

  <!-- ══════════════════════════════════════════
       ICON  (scaled to fit 240×240 left panel)
       Original icon viewBox 512×512 → scale = 240/512 ≈ 0.469
       ══════════════════════════════════════════ -->
  <g transform="translate(0,0) scale(0.46875)">

    <!-- Icon background -->
    <rect width="512" height="512" rx="80" fill="#0c0c28"/>

    <!-- Mesh lines -->
    <g stroke="url(#lineGrad)" stroke-width="1.4" fill="none" opacity="0.38">
      <line x1="64"  y1="96"  x2="448" y2="96"/>
      <line x1="64"  y1="176" x2="448" y2="176"/>
      <line x1="64"  y1="256" x2="448" y2="256"/>
      <line x1="64"  y1="336" x2="448" y2="336"/>
      <line x1="64"  y1="416" x2="448" y2="416"/>
      <line x1="64"  y1="96"  x2="64"  y2="416"/>
      <line x1="128" y1="96"  x2="128" y2="416"/>
      <line x1="192" y1="96"  x2="192" y2="416"/>
      <line x1="256" y1="96"  x2="256" y2="416"/>
      <line x1="320" y1="96"  x2="320" y2="416"/>
      <line x1="384" y1="96"  x2="384" y2="416"/>
      <line x1="448" y1="96"  x2="448" y2="416"/>
      <line x1="64"  y1="96"  x2="128" y2="176"/>
      <line x1="128" y1="96"  x2="192" y2="176"/>
      <line x1="192" y1="96"  x2="256" y2="176"/>
      <line x1="256" y1="96"  x2="320" y2="176"/>
      <line x1="320" y1="96"  x2="384" y2="176"/>
      <line x1="384" y1="96"  x2="448" y2="176"/>
      <line x1="64"  y1="336" x2="128" y2="416"/>
      <line x1="128" y1="336" x2="192" y2="416"/>
      <line x1="192" y1="336" x2="256" y2="416"/>
      <line x1="256" y1="336" x2="320" y2="416"/>
      <line x1="320" y1="336" x2="384" y2="416"/>
      <line x1="384" y1="336" x2="448" y2="416"/>
      <line x1="64"  y1="176" x2="128" y2="96"/>
      <line x1="384" y1="96"  x2="448" y2="176"/>
      <line x1="64"  y1="176" x2="128" y2="256"/>
      <line x1="128" y1="256" x2="64"  y2="336"/>
      <line x1="448" y1="176" x2="384" y2="256"/>
      <line x1="384" y1="256" x2="448" y2="336"/>
    </g>

    <!-- Ambient bar glow -->
    <g filter="url(#ambientGlow)" opacity="0.2">
      <rect x="56"  y="231" width="16" height="50"  rx="8" fill="#00d4ff"/>
      <rect x="120" y="211" width="16" height="90"  rx="8" fill="#00c8f0"/>
      <rect x="184" y="181" width="16" height="150" rx="8" fill="#00ffa3"/>
      <rect x="248" y="156" width="16" height="200" rx="8" fill="#00ffa3"/>
      <rect x="312" y="181" width="16" height="150" rx="8" fill="#00ffa3"/>
      <rect x="376" y="211" width="16" height="90"  rx="8" fill="#8b84e8"/>
      <rect x="440" y="231" width="16" height="50"  rx="8" fill="#8b5cf6"/>
    </g>

    <!-- Waveform bars -->
    <g filter="url(#barGlow)">
      <rect x="56"  y="231" width="16" height="50"  rx="8" fill="url(#barGrad)" opacity="0.95"/>
      <rect x="120" y="211" width="16" height="90"  rx="8" fill="url(#barGrad)" opacity="0.97"/>
      <rect x="184" y="181" width="16" height="150" rx="8" fill="url(#barGrad)"/>
      <rect x="248" y="156" width="16" height="200" rx="8" fill="url(#barGrad)"/>
      <rect x="312" y="181" width="16" height="150" rx="8" fill="url(#barGrad)"/>
      <rect x="376" y="211" width="16" height="90"  rx="8" fill="url(#barGrad)" opacity="0.97"/>
      <rect x="440" y="231" width="16" height="50"  rx="8" fill="url(#barGrad)" opacity="0.95"/>
    </g>

    <!-- Nodes -->
    <g filter="url(#nodeGlow)">
      <circle cx="64"  cy="96"  r="5.5" fill="url(#nodeCyan)"/>
      <circle cx="128" cy="96"  r="5.5" fill="url(#nodeCyan)"/>
      <circle cx="192" cy="96"  r="5.5" fill="url(#nodeTeal)"/>
      <circle cx="256" cy="96"  r="6.5" fill="url(#nodeTeal)"/>
      <circle cx="320" cy="96"  r="5.5" fill="url(#nodeTeal)"/>
      <circle cx="384" cy="96"  r="5.5" fill="url(#nodePurple)"/>
      <circle cx="448" cy="96"  r="5.5" fill="url(#nodePurple)"/>
      <circle cx="64"  cy="176" r="5.5" fill="url(#nodeCyan)"/>
      <circle cx="128" cy="176" r="5.5" fill="url(#nodeCyan)"/>
      <circle cx="192" cy="176" r="5.5" fill="url(#nodeTeal)"/>
      <circle cx="256" cy="176" r="6"   fill="url(#nodeTeal)"/>
      <circle cx="320" cy="176" r="5.5" fill="url(#nodeTeal)"/>
      <circle cx="384" cy="176" r="5.5" fill="url(#nodePurple)"/>
      <circle cx="448" cy="176" r="5.5" fill="url(#nodePurple)"/>
      <circle cx="64"  cy="256" r="5.5" fill="url(#nodeCyan)"/>
      <circle cx="128" cy="256" r="5.5" fill="url(#nodeCyan)"/>
      <circle cx="384" cy="256" r="5.5" fill="url(#nodePurple)"/>
      <circle cx="448" cy="256" r="5.5" fill="url(#nodePurple)"/>
      <circle cx="64"  cy="336" r="5.5" fill="url(#nodeCyan)"/>
      <circle cx="128" cy="336" r="5.5" fill="url(#nodeCyan)"/>
      <circle cx="192" cy="336" r="5.5" fill="url(#nodeTeal)"/>
      <circle cx="256" cy="336" r="6"   fill="url(#nodeTeal)"/>
      <circle cx="320" cy="336" r="5.5" fill="url(#nodeTeal)"/>
      <circle cx="384" cy="336" r="5.5" fill="url(#nodePurple)"/>
      <circle cx="448" cy="336" r="5.5" fill="url(#nodePurple)"/>
      <circle cx="64"  cy="416" r="5.5" fill="url(#nodeCyan)"/>
      <circle cx="128" cy="416" r="5.5" fill="url(#nodeCyan)"/>
      <circle cx="192" cy="416" r="5.5" fill="url(#nodeTeal)"/>
      <circle cx="256" cy="416" r="6.5" fill="url(#nodeTeal)"/>
      <circle cx="320" cy="416" r="5.5" fill="url(#nodeTeal)"/>
      <circle cx="384" cy="416" r="5.5" fill="url(#nodePurple)"/>
      <circle cx="448" cy="416" r="5.5" fill="url(#nodePurple)"/>
    </g>

    <!-- Icon inner border -->
    <rect width="512" height="512" rx="80" fill="none"
          stroke="url(#lineGrad)" stroke-width="1.5" opacity="0.4"/>
  </g>

  <!-- ── Vertical separator ────────────────────── -->
  <line x1="262" y1="28" x2="262" y2="212"
        stroke="url(#lineGrad)" stroke-width="1" opacity="0.35"/>

  <!-- ══════════════════════════════════════════
       WORDMARK  (right of icon)
       ══════════════════════════════════════════ -->

  <!-- "Audio" — white -->
  <text
    x="292" y="152"
    font-family="'Helvetica Neue', 'Arial', sans-serif"
    font-size="80"
    font-weight="800"
    letter-spacing="-2"
    fill="white"
    opacity="0.95">Audio</text>

  <!-- "Mesh" — gradient glow -->
  <text
    x="292" y="152"
    font-family="'Helvetica Neue', 'Arial', sans-serif"
    font-size="80"
    font-weight="800"
    letter-spacing="-2"
    fill="url(#textGrad)"
    filter="url(#textGlow)"
    dx="290">Mesh</text>

  <!-- Tagline -->
  <text
    x="294" y="184"
    font-family="'Helvetica Neue', 'Arial', sans-serif"
    font-size="13.5"
    font-weight="400"
    letter-spacing="4"
    fill="#8899bb"
    opacity="0.85">AI VOICE · MUSIC · TRANSCRIPTION</text>

  <!-- Outer border -->
  <rect width="900" height="240" rx="20" fill="none"
        stroke="url(#lineGrad)" stroke-width="1.2" opacity="0.3"/>
</svg>
